<svg xmlns="http://www.w3.org/2000/svg" width="178.186" height="54.21" viewBox="0 0 178.186 54.21"><defs><style>.a{fill:#fff;}</style></defs><g transform="translate(0 0)"><path class="a" d="M7850,7682.813h12.217s-6.871-3.818-3.816-12.216C7855.345,7680.522,7850,7682.813,7850,7682.813Z" transform="translate(-7849.999 -7628.602)"/><path class="a" d="M7934.138,7577.509s3.055-3.055.764-8.4-15.271-36.649-15.271-36.649l4.581-9.162,18.325,46.576s3.052,7.634,6.106,7.634Z" transform="translate(-7899.779 -7523.299)"/><path class="a" d="M8144.59,7698.129s3.817-3.054,3.817-6.108a54.429,54.429,0,0,1,5.346,6.108Z" transform="translate(-8060.603 -7643.919)"/><path class="a" d="M8169.821,7698.129s-3.816-3.054-3.816-6.108a54.3,54.3,0,0,0-5.346,6.108Z" transform="translate(-8072.091 -7643.919)"/><rect class="a" width="6.108" height="54.21" transform="translate(87.805 0)"/><path class="a" d="M8342.771,7523.3s3.817,3.054,3.817,6.107a54.446,54.446,0,0,0,5.345-6.107Z" transform="translate(-8202.283 -7523.299)"/><rect class="a" width="6.108" height="54.21" transform="translate(144.305 0)"/><path class="a" d="M8085.672,7523.3v10.688s2.29-10.688,11.453-10.688Z" transform="translate(-8018.482 -7523.299)"/><path class="a" d="M8222.994,7523.3v10.688s-2.291-10.688-11.453-10.688Z" transform="translate(-8108.466 -7523.299)"/><g transform="translate(157.005)"><path class="a" d="M8402.515,7523.3c-.611,0-1.214.033-1.807.086,5.525.729,9.823,6.219,9.823,12.893s-4.3,12.164-9.823,12.893c.593.054,1.2.086,1.807.086,8.855,0,16.034-5.811,16.034-12.979S8411.37,7523.3,8402.515,7523.3Z" transform="translate(-8400.708 -7523.299)"/></g><g transform="translate(159.296 26.723)"><path class="a" d="M8410.654,7617.033c-.646,0-1.283.035-1.912.093,5.852.77,10.4,6.584,10.4,13.65s-4.55,12.88-10.4,13.65c.629.057,1.266.093,1.912.093,9.376,0,16.978-6.153,16.978-13.743S8420.03,7617.033,8410.654,7617.033Z" transform="translate(-8408.742 -7617.033)"/></g></g></svg>