<svg xmlns="http://www.w3.org/2000/svg" width="168.893" height="51.383" viewBox="0 0 168.893 51.383"><defs><style>.a{fill:#fff;}.b{fill:#fdfdfd;}</style></defs><g transform="translate(0 0)"><path class="a" d="M7850,7682.175h11.579s-6.513-3.619-3.617-11.579C7855.065,7680,7850,7682.175,7850,7682.175Z" transform="translate(-7849.999 -7630.792)"/><path class="a" d="M7933.381,7574.682s2.895-2.9.724-7.961-14.475-34.738-14.475-34.738l4.343-8.684,17.369,44.147s2.893,7.236,5.788,7.236Z" transform="translate(-7900.813 -7523.299)"/><path class="a" d="M8144.589,7697.81s3.619-2.9,3.619-5.79a51.534,51.534,0,0,1,5.066,5.79Z" transform="translate(-8064.982 -7646.428)"/><path class="a" d="M8169.343,7697.81s-3.618-2.9-3.618-5.79a51.47,51.47,0,0,0-5.066,5.79Z" transform="translate(-8076.709 -7646.428)"/><rect class="a" width="5.79" height="51.383" transform="translate(83.225 0)"/><path class="a" d="M8342.77,7523.3s3.618,2.895,3.618,5.789a51.571,51.571,0,0,0,5.066-5.789Z" transform="translate(-8209.609 -7523.299)"/><rect class="a" width="5.79" height="51.383" transform="translate(136.779 0)"/><path class="a" d="M8085.672,7523.3v10.131s2.171-10.131,10.855-10.131Z" transform="translate(-8021.986 -7523.299)"/><path class="a" d="M8222.4,7523.3v10.131s-2.171-10.131-10.855-10.131Z" transform="translate(-8113.842 -7523.299)"/><g transform="translate(148.817)"><path class="b" d="M8402.42,7523.3c-.579,0-1.15.032-1.712.082,5.237.691,9.311,5.9,9.311,12.221s-4.073,11.53-9.311,12.221c.562.051,1.133.082,1.712.082,8.394,0,15.2-5.508,15.2-12.3S8410.813,7523.3,8402.42,7523.3Z" transform="translate(-8400.708 -7523.299)"/></g><g transform="translate(150.988 25.33)"><path class="b" d="M8410.555,7617.033c-.613,0-1.217.033-1.812.088,5.546.729,9.858,6.241,9.858,12.938s-4.312,12.208-9.858,12.938c.6.054,1.2.088,1.813.088,8.887,0,16.092-5.832,16.092-13.026S8419.441,7617.033,8410.555,7617.033Z" transform="translate(-8408.742 -7617.033)"/></g></g></svg>