<svg xmlns="http://www.w3.org/2000/svg" width="140.196" height="42.652" viewBox="0 0 140.196 42.652"><defs><style>.a{fill:#fff;}.b{fill:#fdfdfd;}</style></defs><g transform="translate(0 0)"><path class="a" d="M7850,7680.206h9.61s-5.406-3-3-9.61C7854.2,7678.405,7850,7680.206,7850,7680.206Z" transform="translate(-7849.999 -7637.555)"/><path class="a" d="M7931.043,7565.95s2.4-2.4.6-6.608-12.016-28.836-12.016-28.836l3.605-7.208,14.417,36.646s2.4,6.006,4.8,6.006Z" transform="translate(-7904.009 -7523.298)"/><path class="a" d="M8144.588,7696.826s3-2.4,3-4.806a42.8,42.8,0,0,1,4.2,4.806Z" transform="translate(-8078.508 -7654.174)"/><path class="a" d="M8167.866,7696.826s-3-2.4-3-4.806a42.841,42.841,0,0,0-4.206,4.806Z" transform="translate(-8090.973 -7654.174)"/><rect class="a" width="4.806" height="42.652" transform="translate(69.084 0)"/><path class="a" d="M8342.77,7523.3s3,2.4,3,4.8a42.8,42.8,0,0,0,4.207-4.8Z" transform="translate(-8232.234 -7523.298)"/><rect class="a" width="4.806" height="42.652" transform="translate(113.539 0)"/><path class="a" d="M8085.671,7523.3v8.41s1.8-8.41,9.011-8.41Z" transform="translate(-8032.806 -7523.298)"/><path class="a" d="M8220.553,7523.3v8.41s-1.8-8.41-9.012-8.41Z" transform="translate(-8130.442 -7523.298)"/><g transform="translate(123.531)"><path class="b" d="M8402.129,7523.3c-.481,0-.955.026-1.421.067,4.346.575,7.729,4.895,7.729,10.146s-3.383,9.57-7.729,10.144c.466.042.939.068,1.421.068,6.967,0,12.615-4.572,12.615-10.212S8409.1,7523.3,8402.129,7523.3Z" transform="translate(-8400.708 -7523.298)"/></g><g transform="translate(125.333 21.026)"><path class="b" d="M8410.247,7617.033c-.51,0-1.011.026-1.5.072,4.6.6,8.182,5.181,8.182,10.74s-3.579,10.133-8.182,10.739c.494.045,1,.072,1.5.072,7.376,0,13.358-4.84,13.358-10.812S8417.623,7617.033,8410.247,7617.033Z" transform="translate(-8408.742 -7617.033)"/></g></g></svg>